<svg width="1277" height="1412" viewBox="0 0 1277 1412" fill="none" xmlns="http://www.w3.org/2000/svg">
<g filter="url(#filter0_d_3:2)">
<path d="M637.695 220.656C621.582 220.656 608.887 233.84 608.887 249.953V431.105C608.887 447.707 621.582 460.402 637.695 460.402C654.297 460.402 666.992 447.707 666.992 431.105V249.953C666.992 233.84 654.297 220.656 637.695 220.656ZM493.652 233.84C477.539 237.258 468.75 251.418 473.633 269.973L489.746 331.496C494.141 346.633 509.277 354.934 527.344 349.562C544.434 344.191 551.27 330.52 546.387 314.895L529.297 255.812C524.414 238.234 510.254 230.91 493.652 233.84ZM782.227 235.305C766.602 229.934 751.465 237.746 746.582 255.812L729.98 315.871C725.586 331.496 734.375 347.609 750 351.516C765.625 355.422 781.25 347.121 785.645 331.008L801.758 270.949C806.152 254.348 797.852 239.699 782.227 235.305ZM362.793 293.898C348.633 302.199 344.238 319.777 352.539 333.938L442.871 491.164C451.172 505.812 468.75 510.207 482.422 501.906C496.582 494.094 501.465 476.516 493.164 462.355L402.344 304.641C394.043 290.969 376.953 286.574 362.793 293.898ZM913.574 294.387C899.414 286.574 881.836 290.969 873.535 304.641L783.203 462.355C774.414 476.516 779.297 494.094 793.457 501.906C807.129 510.207 825.195 505.812 833.008 491.164L923.828 333.938C931.641 319.777 927.246 302.688 913.574 294.387ZM244.629 378.371C232.91 389.602 234.375 408.156 245.117 419.387L288.574 463.332C300.781 475.539 317.383 476.027 330.078 463.82C341.309 452.59 341.797 435.012 329.59 422.316L286.133 378.859C273.438 366.164 256.836 366.652 244.629 378.371ZM1031.25 378.859C1019.53 367.141 1000.98 368.117 990.234 378.859L945.801 422.805C933.594 435.5 933.594 452.102 945.801 463.82C957.52 476.027 975.098 476.027 986.328 464.309L1029.79 420.363C1041.99 407.668 1042.48 390.578 1031.25 378.859ZM161.621 495.559C153.32 509.719 157.715 527.297 171.875 535.598L329.102 626.418C343.75 634.719 360.84 629.836 369.141 616.164C376.953 602.004 372.559 584.426 357.91 576.125L200.684 485.305C186.523 477.492 169.434 481.887 161.621 495.559ZM1115.23 496.047C1106.93 481.887 1089.36 477.492 1075.2 485.305L917.969 576.125C903.32 584.426 898.926 602.004 907.227 616.164C915.039 629.836 932.617 634.719 946.777 626.418L1104.49 535.598C1118.16 527.297 1122.56 510.207 1115.23 496.047ZM1174.8 627.883C1170.9 611.77 1154.3 602.492 1139.65 606.887L1078.61 623.488C1062.99 627.883 1053.71 643.02 1059.08 661.086C1062.99 673.781 1076.66 684.035 1094.24 679.641L1153.32 663.039C1170.41 658.645 1178.71 643.02 1174.8 627.883ZM100.586 627.395C97.168 643.02 106.934 658.645 121.582 663.039L181.641 680.129C198.242 684.035 213.867 675.246 217.285 659.133C220.703 643.508 213.379 626.906 197.266 623L137.207 607.863C119.629 603.469 104.004 612.258 100.586 627.395ZM1188.48 770.949C1188.48 754.836 1175.78 742.141 1159.18 742.141H978.027C961.426 742.141 948.73 754.836 948.73 770.949C948.73 787.551 961.426 800.246 978.027 800.246H1159.18C1175.78 800.246 1188.48 787.551 1188.48 770.949ZM87.4023 770.949C87.4023 787.551 100.586 800.246 116.699 800.246H297.852C314.941 800.246 327.148 787.551 327.148 770.949C327.148 754.836 314.941 742.141 297.852 742.141H116.699C100.586 742.141 87.4023 754.836 87.4023 770.949ZM1174.8 916.457C1179.2 899.855 1171.88 884.719 1154.79 879.836L1094.24 862.746C1077.64 858.352 1062.5 867.629 1058.59 883.254C1054.69 899.367 1063.48 915.969 1078.61 919.875L1138.67 935.5C1155.76 939.895 1170.41 931.105 1174.8 916.457ZM101.074 914.992C104.98 930.617 121.582 938.918 136.719 935.5L197.266 920.363C213.867 915.969 222.168 900.832 217.773 884.719C213.379 869.094 197.754 859.816 181.641 863.723L123.047 879.836C104.98 884.719 97.168 899.855 101.074 914.992ZM1114.75 1046.34C1122.56 1032.67 1118.16 1015.09 1104.49 1006.79L946.777 915.969C932.617 907.668 915.039 912.551 907.227 926.223C898.926 940.383 903.32 957.961 917.969 966.262L1075.2 1057.08C1089.36 1064.89 1106.45 1060.5 1114.75 1046.34ZM161.133 1046.34C168.945 1060.5 186.523 1064.89 200.684 1057.08L357.91 966.262C372.559 957.961 376.953 940.383 369.141 926.711C360.84 912.551 343.75 907.668 329.102 915.969L171.875 1006.79C157.715 1015.09 153.32 1032.18 161.133 1046.34ZM362.793 1248C376.465 1255.81 394.531 1251.42 402.344 1237.26L493.164 1080.03C501.465 1065.87 496.582 1048.29 482.91 1039.99C468.75 1032.18 451.172 1036.57 442.871 1051.22L352.539 1208.45C344.238 1222.61 348.633 1239.7 362.793 1248ZM913.086 1248C927.246 1240.19 931.641 1222.61 923.828 1208.45L833.008 1051.22C825.195 1036.57 807.129 1032.18 793.457 1039.99C779.297 1048.29 774.414 1065.87 783.203 1080.03L873.535 1237.26C881.836 1251.42 898.926 1255.81 913.086 1248ZM1030.76 1164.5C1042.97 1152.3 1041.99 1133.74 1031.74 1123L986.816 1079.05C975.098 1067.82 957.52 1066.36 944.824 1079.05C933.594 1091.26 934.57 1107.86 945.801 1119.58L989.746 1163.53C1001.95 1175.73 1019.04 1176.22 1030.76 1164.5ZM245.117 1164.02C257.324 1175.73 274.902 1175.73 285.645 1164.99L330.078 1121.05C342.285 1108.35 342.773 1091.75 330.566 1080.03C319.336 1068.31 300.781 1067.82 289.551 1079.54L246.094 1123.49C233.887 1136.18 233.398 1152.3 245.117 1164.02ZM637.695 1321.73C654.297 1321.73 666.992 1308.55 666.992 1292.43V1111.28C666.992 1094.68 654.297 1081.98 637.695 1081.98C621.582 1081.98 608.887 1094.68 608.887 1111.28V1292.43C608.887 1308.55 621.582 1321.73 637.695 1321.73ZM782.227 1308.55C800.781 1304.15 806.152 1288.04 802.246 1272.9L786.621 1211.38C782.227 1195.75 765.625 1186.96 750 1191.36C732.91 1196.24 725.586 1212.36 729.98 1227L747.559 1286.57C752.441 1302.69 764.648 1311.96 782.227 1308.55ZM491.211 1308.06C509.277 1313.92 525.391 1303.18 529.297 1288.04L545.898 1227.98C550.293 1212.36 541.504 1196.24 525.879 1192.34C510.254 1188.43 494.629 1196.73 490.234 1212.84L474.121 1272.9C469.727 1289.5 475.098 1303.18 491.211 1308.06Z" fill="#2D8FD6"/>
</g>
<g filter="url(#filter1_d_3:2)">
<path d="M446.891 1153.55C479.117 1153.55 501.383 1136.55 510.758 1104.33L636.734 671.32H639.078L765.641 1104.33C775.602 1138.9 794.938 1153.55 828.922 1153.55C860.562 1153.55 881.656 1137.14 891.031 1104.33L1039.86 593.391C1042.79 583.43 1043.96 574.641 1043.96 567.023C1043.96 540.07 1024.62 523.078 994.156 523.078C968.961 523.078 955.484 534.797 947.867 564.68L827.75 1029.33H825.406L696.5 568.195C688.297 538.312 668.961 523.078 638.492 523.078C607.438 523.078 586.93 538.898 578.727 568.781L450.992 1029.33H448.648L328.531 564.68C320.914 534.797 307.438 523.078 282.242 523.078C251.773 523.078 232.438 540.07 232.438 567.023C232.438 574.641 233.609 583.43 236.539 593.391L385.367 1104.33C395.328 1138.31 414.664 1153.55 446.891 1153.55Z" fill="#2D8FD6" shape-rendering="crispEdges"/>
<path d="M510.758 1104.33L508.837 1103.77L510.758 1104.33ZM636.734 671.32V669.32H635.233L634.814 670.762L636.734 671.32ZM639.078 671.32L640.998 670.759L640.577 669.32H639.078V671.32ZM765.641 1104.33L767.562 1103.77L767.56 1103.77L765.641 1104.33ZM891.031 1104.33L889.111 1103.77L889.108 1103.78L891.031 1104.33ZM1039.86 593.391L1037.94 592.826L1037.94 592.831L1039.86 593.391ZM947.867 564.68L949.804 565.18L949.805 565.174L947.867 564.68ZM827.75 1029.33V1031.33H829.299L829.686 1029.83L827.75 1029.33ZM825.406 1029.33L823.48 1029.87L823.889 1031.33H825.406V1029.33ZM696.5 568.195L694.571 568.725L694.574 568.734L696.5 568.195ZM578.727 568.781L580.654 569.316L580.655 569.311L578.727 568.781ZM450.992 1029.33V1031.33H452.513L452.919 1029.86L450.992 1029.33ZM448.648 1029.33L446.712 1029.83L447.1 1031.33H448.648V1029.33ZM328.531 564.68L326.593 565.174L326.595 565.18L328.531 564.68ZM236.539 593.391L238.459 592.831L238.458 592.826L236.539 593.391ZM385.367 1104.33L383.447 1104.89L383.448 1104.89L385.367 1104.33ZM446.891 1155.55C463.365 1155.55 477.438 1151.2 488.612 1142.61C499.782 1134.02 507.898 1121.32 512.678 1104.89L508.837 1103.77C504.243 1119.56 496.538 1131.47 486.175 1139.44C475.816 1147.4 462.643 1151.55 446.891 1151.55V1155.55ZM512.678 1104.89L638.655 671.879L634.814 670.762L508.837 1103.77L512.678 1104.89ZM636.734 673.32H639.078V669.32H636.734V673.32ZM637.158 671.881L763.721 1104.89L767.56 1103.77L640.998 670.759L637.158 671.881ZM763.719 1104.88C768.77 1122.41 776.273 1135.15 787.049 1143.48C797.835 1151.82 811.647 1155.55 828.922 1155.55V1151.55C812.212 1151.55 799.364 1147.95 789.496 1140.32C779.618 1132.68 772.472 1120.81 767.562 1103.77L763.719 1104.88ZM828.922 1155.55C845.099 1155.55 858.745 1151.35 869.565 1142.81C880.374 1134.29 888.183 1121.58 892.954 1104.88L889.108 1103.78C884.505 1119.89 877.079 1131.79 867.088 1139.67C857.107 1147.54 844.386 1151.55 828.922 1151.55V1155.55ZM892.951 1104.89L1041.78 593.95L1037.94 592.831L889.111 1103.77L892.951 1104.89ZM1041.78 593.955C1044.76 583.826 1045.96 574.847 1045.96 567.023H1041.96C1041.96 574.434 1040.82 583.033 1037.94 592.826L1041.78 593.955ZM1045.96 567.023C1045.96 553.039 1040.93 541.482 1031.81 533.443C1022.71 525.429 1009.75 521.078 994.156 521.078V525.078C1009.03 525.078 1020.97 529.224 1029.16 536.444C1037.33 543.639 1041.96 554.055 1041.96 567.023H1045.96ZM994.156 521.078C981.241 521.078 971.037 524.089 963.089 531.18C955.191 538.226 949.782 549.071 945.929 564.186L949.805 565.174C953.57 550.405 958.708 540.449 965.751 534.165C972.744 527.926 981.877 525.078 994.156 525.078V521.078ZM945.931 564.179L825.814 1028.83L829.686 1029.83L949.804 565.18L945.931 564.179ZM827.75 1027.33H825.406V1031.33H827.75V1027.33ZM827.332 1028.79L698.426 567.657L694.574 568.734L823.48 1029.87L827.332 1028.79ZM698.429 567.666C694.244 552.422 687.165 540.727 677.076 532.854C666.981 524.977 654.066 521.078 638.492 521.078V525.078C653.387 525.078 665.374 528.797 674.615 536.007C683.862 543.223 690.553 554.086 694.571 568.725L698.429 567.666ZM638.492 521.078C622.619 521.078 609.275 525.126 598.823 533.136C588.373 541.146 580.989 552.983 576.798 568.252L580.655 569.311C584.667 554.697 591.639 543.683 601.257 536.311C610.874 528.94 623.31 525.078 638.492 525.078V521.078ZM576.799 568.247L449.065 1028.79L452.919 1029.86L580.654 569.316L576.799 568.247ZM450.992 1027.33H448.648V1031.33H450.992V1027.33ZM450.585 1028.83L330.468 564.179L326.595 565.18L446.712 1029.83L450.585 1028.83ZM330.469 564.186C326.617 549.071 321.208 538.226 313.31 531.18C305.361 524.089 295.158 521.078 282.242 521.078V525.078C294.522 525.078 303.654 527.926 310.647 534.165C317.691 540.449 322.829 550.405 326.593 565.174L330.469 564.186ZM282.242 521.078C266.648 521.078 253.685 525.429 244.592 533.443C235.471 541.482 230.438 553.039 230.438 567.023H234.438C234.438 554.055 239.072 543.639 247.236 536.444C255.429 529.224 267.368 525.078 282.242 525.078V521.078ZM230.438 567.023C230.438 574.847 231.641 583.826 234.62 593.955L238.458 592.826C235.577 583.033 234.438 574.434 234.438 567.023H230.438ZM234.619 593.95L383.447 1104.89L387.287 1103.77L238.459 592.831L234.619 593.95ZM383.448 1104.89C388.5 1122.13 395.999 1134.85 406.533 1143.25C417.085 1151.66 430.456 1155.55 446.891 1155.55V1151.55C431.099 1151.55 418.689 1147.82 409.026 1140.12C399.345 1132.4 392.195 1120.51 387.286 1103.77L383.448 1104.89Z" fill="black" fill-opacity="0.46"/>
</g>
<defs>
<filter id="filter0_d_3:2" x="83.4023" y="220.656" width="1109.07" height="1109.07" filterUnits="userSpaceOnUse" color-interpolation-filters="sRGB">
<feFlood flood-opacity="0" result="BackgroundImageFix"/>
<feColorMatrix in="SourceAlpha" type="matrix" values="0 0 0 0 0 0 0 0 0 0 0 0 0 0 0 0 0 0 127 0" result="hardAlpha"/>
<feOffset dy="4"/>
<feGaussianBlur stdDeviation="2"/>
<feComposite in2="hardAlpha" operator="out"/>
<feColorMatrix type="matrix" values="0 0 0 0 0 0 0 0 0 0 0 0 0 0 0 0 0 0 0.25 0"/>
<feBlend mode="normal" in2="BackgroundImageFix" result="effect1_dropShadow_3:2"/>
<feBlend mode="normal" in="SourceGraphic" in2="effect1_dropShadow_3:2" result="shape"/>
</filter>
<filter id="filter1_d_3:2" x="182.438" y="478.078" width="913.523" height="732.469" filterUnits="userSpaceOnUse" color-interpolation-filters="sRGB">
<feFlood flood-opacity="0" result="BackgroundImageFix"/>
<feColorMatrix in="SourceAlpha" type="matrix" values="0 0 0 0 0 0 0 0 0 0 0 0 0 0 0 0 0 0 127 0" result="hardAlpha"/>
<feOffset dx="1" dy="6"/>
<feGaussianBlur stdDeviation="24.5"/>
<feComposite in2="hardAlpha" operator="out"/>
<feColorMatrix type="matrix" values="0 0 0 0 0 0 0 0 0 0 0 0 0 0 0 0 0 0 0.23 0"/>
<feBlend mode="normal" in2="BackgroundImageFix" result="effect1_dropShadow_3:2"/>
<feBlend mode="normal" in="SourceGraphic" in2="effect1_dropShadow_3:2" result="shape"/>
</filter>
</defs>
</svg>
